<?xml version="1.0" encoding="utf-8"?>
<!-- Generator: Adobe Illustrator 23.0.1, SVG Export Plug-In . SVG Version: 6.00 Build 0)  -->
<svg version="1.1" id="Layer_1" focusable="false" xmlns="http://www.w3.org/2000/svg" xmlns:xlink="http://www.w3.org/1999/xlink"
	 x="0px" y="0px" viewBox="0 0 512 512" style="enable-background:new 0 0 512 512;" xml:space="preserve">
<style type="text/css">
	.st0{fill:#D1A84E;}
</style>
<path class="st0" d="M256,64C110.1,64,0,125.9,0,208v98.1C0,384.5,114.6,448,256,448s256-63.5,256-141.9V208
	C512,125.9,401.9,64,256,64z M256,128c106,0,192,35.8,192,80c0,9.3-4,18.1-10.9,26.4C392.1,208.2,328.2,192,256,192
	s-136.1,16.2-181.1,42.4C68,226.1,64,217.3,64,208C64,163.8,150,128,256,128z M120.4,264.6C155,249.9,201.6,240,256,240
	s101,9.9,135.6,24.6C356.8,279.1,308.9,288,256,288S155.2,279.1,120.4,264.6z"/>
</svg>
